<?xml version="1.0" encoding="UTF-8"?>
<svg width="39px" height="39px" viewBox="0 -1 39 38" version="1.1" xmlns="http://www.w3.org/2000/svg" xmlns:xlink="http://www.w3.org/1999/xlink">
    <title>Group</title>
    <defs>
        <polygon id="path-1" points="113.037546 16.6442442 126.167633 16.6442442 126.167633 31.5545706 113.037546 31.5545706"></polygon>
        <polygon id="path-3" points="0 0 38.6685573 0 38.6685573 38.6685302 0 38.6685302"></polygon>
        <path d="M21.7962304,13.5174575 C21.6108262,13.5174575 21.4321885,13.5640116 21.2584228,13.6563077 L21.2584228,13.6563077 C21.0849277,13.7491452 20.9514908,13.8763568 20.8594653,14.0379427 L20.8594653,14.0379427 L19.7838501,15.9117435 L16.3491351,15.9117435 L16.3491351,17.4729284 L20.0612798,17.4729284 C20.2464134,17.4729284 20.4261337,17.4269156 20.5996287,17.3343489 L20.5996287,17.3343489 C20.7725825,17.2420527 20.9054781,17.1145704 20.9983155,16.9524432 L20.9983155,16.9524432 L22.0736601,15.0789131 L28.4239582,15.0789131 C28.7934134,15.0789131 29.1054879,15.2061247 29.3601819,15.4605481 L29.3601819,15.4605481 C29.6146053,15.7152421 29.7420876,16.0275873 29.7420876,16.3973131 L29.7420876,16.3973131 L29.7420876,21.9145102 C29.7420876,22.2845067 29.6146053,22.5971226 29.3601819,22.8510046 L29.3601819,22.8510046 C29.1054879,23.1056986 28.7934134,23.2326396 28.4239582,23.2326396 L28.4239582,23.2326396 L22.1085756,23.2326396 L20.2004006,19.9365041 C20.1075632,19.7749182 19.9749383,19.6471652 19.8011725,19.5548691 L19.8011725,19.5548691 C19.6279481,19.462573 19.4482278,19.4157483 19.2636356,19.4157483 L19.2636356,19.4157483 L16.3491351,19.4157483 L16.3491351,20.9772038 L18.9856646,20.9772038 L20.8594653,24.238965 C20.9514908,24.4010923 21.0849277,24.5337172 21.2584228,24.6379225 L21.2584228,24.6379225 C21.4321885,24.7421278 21.6108262,24.7940951 21.7962304,24.7940951 L21.7962304,24.7940951 L28.7011172,24.7940951 C29.4411102,24.7940951 30.0595754,24.545897 30.5578662,24.0481475 L30.5578662,24.0481475 C31.0548037,23.5512101 31.3032725,22.9324742 31.3032725,22.1919399 L31.3032725,22.1919399 L31.3032725,16.1196128 C31.3032725,15.3796198 31.0548037,14.7611546 30.5578662,14.2634051 L30.5578662,14.2634051 C30.0595754,13.7661969 29.4411102,13.5174575 28.7011172,13.5174575 L28.7011172,13.5174575 L21.7962304,13.5174575 Z M25.6826821,17.2301436 C25.4279881,17.4848376 25.3010471,17.7852736 25.3010471,18.1322637 L25.3010471,18.1322637 C25.3010471,18.4792539 25.4336721,18.7861858 25.6997339,19.0517064 L25.6997339,19.0517064 C25.9657958,19.3177682 26.2721864,19.4506638 26.6191765,19.4506638 L26.6191765,19.4506638 C26.9664373,19.4506638 27.2666027,19.3239935 27.5212967,19.0692995 L27.5212967,19.0692995 C27.77572,18.8148761 27.9029317,18.5022602 27.9029317,18.1322637 L27.9029317,18.1322637 C27.9029317,17.7625379 27.7816746,17.4556059 27.5386191,17.2128211 L27.5386191,17.2128211 C27.296105,16.9700363 26.989173,16.8482379 26.6191765,16.8482379 L26.6191765,16.8482379 C26.2489094,16.8482379 25.9368348,16.9759909 25.6826821,17.2301436 L25.6826821,17.2301436 Z" id="path-5"></path>
        <linearGradient x1="49.9996813%" y1="-2.68823656e-05%" x2="49.9996813%" y2="99.9999597%" id="linearGradient-7">
            <stop stop-color="#466272" offset="0%"></stop>
            <stop stop-color="#8AA3BD" offset="100%"></stop>
        </linearGradient>
    </defs>
    <g id="V3_24_2-—-tom" stroke="none" stroke-width="1" fill="none" fill-rule="evenodd">
        <g id="220228_IDAustria_Landing_Desktop_V4_Hover_Link_1" transform="translate(-100.000000, -284.000000)">
            <g id="Header-/-desktop" transform="translate(0.000000, 140.000000)">
                <g id="Group" transform="translate(100.000000, 144.000027)">
                    <polygon id="Fill-1" fill="#FEFEFE" points="51.7104 31.1859299 55.3920444 31.1859299 55.3920444 9.71046468 51.7104 9.71046468"></polygon>
                    <path d="M70.793606,27.1060201 C71.6309063,26.7183282 72.3472314,26.19061 72.9406763,25.5257231 C73.5341211,24.8617888 73.9884923,24.094978 74.3066473,23.2252907 C74.6228972,22.356556 74.7810222,21.4306677 74.7810222,20.4485783 C74.7810222,19.4664889 74.6228972,18.5358378 74.3066473,17.6566249 C73.9884923,16.7774121 73.5341211,16.0106013 72.9406763,15.3561925 C72.3472314,14.7017838 71.6309063,14.1797809 70.793606,13.7911365 C69.9544007,13.402492 69.0132714,13.2081697 67.9702182,13.2081697 L64.6572145,13.2081697 L64.6572145,27.6889869 L67.9702182,27.6889869 C69.0132714,27.6889869 69.9544007,27.4946646 70.793606,27.1060201 M72.2205409,10.5238557 C73.5188802,11.0658623 74.6333754,11.8126693 75.5640265,12.7633242 C76.4937251,13.7139791 77.2195758,14.8446678 77.7425312,16.1534853 C78.2635815,17.4623027 78.5236304,18.8940004 78.5236304,20.4485783 C78.5236304,22.0031562 78.2635815,23.4348539 77.7425312,24.7436713 C77.2195758,26.0534413 76.4937251,27.1822249 75.5640265,28.1338324 C74.6333754,29.0844873 73.5188802,29.8312943 72.2205409,30.3733009 C70.9202965,30.9153076 69.483836,31.1858346 67.9092543,31.1858346 L60.9755701,31.1858346 L60.9755701,9.71036942 L67.9092543,9.71036942 C69.483836,9.71036942 70.9202965,9.98184902 72.2205409,10.5238557" id="Fill-2" fill="#FEFEFE"></path>
                    <path d="M103.434599,22.7191003 L100.213041,14.3432402 L96.9914827,22.7191003 L103.434599,22.7191003 Z M93.7089609,31.1864062 L89.9977872,31.1864062 L98.3412602,9.71094096 L102.084821,9.71094096 L110.429247,31.1864062 L106.71712,31.1864062 L104.753894,26.0940204 L95.6731396,26.0940204 L93.7089609,31.1864062 Z" id="Fill-4" fill="#FEFEFE"></path>
                    <mask id="mask-2" fill="white">
                        <use xlink:href="#path-1"></use>
                    </mask>
                    <g id="Clip-7"></g>
                    <path d="M116.365791,31.1860251 C115.72186,30.9402647 115.154135,30.5830547 114.663566,30.11249 C114.172045,29.6419254 113.777686,29.0694368 113.482392,28.3940718 C113.185193,27.7196593 113.037546,26.9423703 113.037546,26.0631575 L113.037546,16.6442442 L116.718238,16.6442442 L116.718238,25.0505862 C116.718238,26.1345995 116.963999,26.9176038 117.45552,27.3967415 C117.946088,27.8777843 118.661461,28.1178294 119.601637,28.1178294 C120.073155,28.1178294 120.492281,28.0263836 120.860922,27.841587 C121.227657,27.6586955 121.524856,27.4538951 121.74966,27.2290909 C122.036381,26.9623741 122.282141,26.6661279 122.486942,26.3384473 L122.486942,16.6442442 L126.167633,16.6442442 L126.167633,31.1860251 L122.73175,31.1860251 L122.73175,29.0694368 C122.445029,29.5400015 122.087819,29.9486497 121.658214,30.2963341 C121.309577,30.6240147 120.865684,30.9154981 120.322725,31.1707842 C119.781671,31.4260703 119.131073,31.5546659 118.37474,31.5546659 C117.680324,31.5546659 117.010674,31.4317856 116.365791,31.1860251" id="Fill-6" fill="#FEFEFE" mask="url(#mask-2)"></path>
                    <path d="M131.597416,26.2474778 C131.985108,26.6351697 132.414712,26.9828541 132.88623,27.290531 C133.274874,27.5562953 133.734008,27.7963404 134.266489,28.0116189 C134.798018,28.2259449 135.371459,28.3326317 135.983955,28.3326317 C136.740287,28.3326317 137.390886,28.2259449 137.93194,28.0116189 C138.474899,27.7963404 138.745426,27.4638969 138.745426,27.0142886 C138.745426,26.543724 138.540626,26.2169959 138.131978,26.0321993 C137.723329,25.8483552 136.966044,25.6435548 135.862027,25.4187506 C135.145702,25.2549103 134.460811,25.0558253 133.806403,24.8205429 C133.151994,24.5852606 132.578553,24.2832991 132.088937,23.9156109 C131.597416,23.5469702 131.203056,23.1126029 130.90681,22.6115563 C130.610564,22.1105097 130.462917,21.5123021 130.462917,20.8169333 C130.462917,20.2444447 130.600086,19.6871971 130.876328,19.1442379 C131.15257,18.6031838 131.556456,18.1164257 132.088937,17.6877737 C132.619513,17.2572165 133.274874,16.9162001 134.05121,16.6599614 C134.829452,16.4046753 135.71819,16.2760797 136.721236,16.2760797 C137.559489,16.2760797 138.311059,16.3684781 138.975946,16.5523221 C139.63988,16.7361662 140.207606,16.9409666 140.67817,17.1657708 C141.250659,17.431535 141.751706,17.7287337 142.18131,18.0554618 L140.340964,20.7550169 C140.013284,20.5302127 139.655121,20.3158867 139.267429,20.1110863 C138.939748,19.947246 138.556819,19.804362 138.116737,19.6814817 C137.676654,19.5586015 137.211805,19.4976377 136.721236,19.4976377 C136.024915,19.4976377 135.411466,19.6157551 134.879938,19.8500849 C134.348409,20.0853672 134.081692,20.4282888 134.081692,20.8778971 C134.081692,21.328458 134.348409,21.6456605 134.879938,21.828552 C135.411466,22.0133486 136.291632,22.2381528 137.518529,22.503917 C138.233901,22.6477536 138.894026,22.8258823 139.496996,23.0411609 C140.100919,23.2554869 140.621969,23.5364921 141.062052,23.885129 C141.501182,24.2328134 141.844104,24.662418 142.089864,25.1729901 C142.334672,25.6845149 142.457552,26.3189198 142.457552,27.0752525 C142.457552,27.6896537 142.298475,28.2716678 141.982225,28.8241526 C141.665023,29.3756849 141.22494,29.8519649 140.663882,30.2501349 C140.100919,30.6492576 139.431269,30.9664601 138.653028,31.2017424 C137.876691,31.4360721 137.027008,31.5541896 136.106835,31.5541896 C135.043778,31.5541896 134.102649,31.4170209 133.2844,31.1407785 C132.466151,30.8645361 131.78126,30.5625746 131.228775,30.2358465 C130.574366,29.8462495 130.012356,29.4061668 129.541791,28.9165509 L131.597416,26.2474778 Z" id="Fill-9" fill="#FEFEFE"></path>
                    <path d="M144.727693,16.6441489 L147.580611,16.6441489 L147.580611,12.318574 L151.261303,12.318574 L151.261303,16.6441489 L155.648794,16.6441489 L155.648794,19.9581052 L151.261303,19.9581052 L151.261303,25.8173017 C151.261303,26.6965146 151.455625,27.3004376 151.845222,27.6281183 C152.232914,27.9557989 152.672996,28.1177341 153.163565,28.1177341 C153.389322,28.1177341 153.588407,28.0929676 153.761773,28.0415293 C153.936091,27.9910436 154.094216,27.9243644 154.2371,27.8414917 C154.40094,27.7805279 154.554302,27.6995603 154.698139,27.5976364 L156.047917,30.6039157 C155.761196,30.7877598 155.443993,30.9401694 155.097262,31.0630496 C154.789585,31.1859299 154.421897,31.298332 153.992292,31.4012084 C153.562687,31.5031324 153.082597,31.5545706 152.550116,31.5545706 C151.854747,31.5545706 151.200339,31.4316904 150.58689,31.1859299 C149.973441,30.9401694 149.446676,30.5934376 149.006593,30.1428767 C148.56651,29.6942209 148.219778,29.1512617 147.96354,28.5168568 C147.708254,27.8834044 147.580611,27.1775574 147.580611,26.4002684 L147.580611,19.9581052 L144.727693,19.9581052 L144.727693,16.6441489 Z" id="Fill-11" fill="#FEFEFE"></path>
                    <path d="M167.690581,16.3530466 C167.986827,16.4044848 168.247829,16.4502077 168.472633,16.4911678 C168.738397,16.5730879 168.993683,16.6550081 169.239444,16.7359757 L167.95063,20.0499319 C167.807746,19.9880155 167.654384,19.9270517 167.490544,19.8660879 C167.326703,19.8251278 167.142859,19.7889305 166.939011,19.7584486 C166.734211,19.7270141 166.48845,19.7117731 166.202682,19.7117731 C165.650198,19.7117731 165.170107,19.8146496 164.760507,20.01945 C164.350906,20.2232979 164.0137,20.448102 163.747935,20.6938625 C163.421207,20.9805831 163.15449,21.3082637 162.94969,21.6759519 L162.94969,31.1863109 L159.268998,31.1863109 L159.268998,16.6445299 L162.765846,16.6445299 L162.765846,18.7611183 C163.03161,18.2905536 163.359291,17.8714272 163.747935,17.5037391 C164.074663,17.1960622 164.484264,16.9160095 164.974833,16.6597709 C165.466354,16.4044848 166.048368,16.2758892 166.723733,16.2758892 C167.071417,16.2758892 167.393382,16.3016083 167.690581,16.3530466" id="Fill-13" fill="#FEFEFE"></path>
                    <path d="M172.337836,31.1859299 L176.01948,31.1859299 L176.01948,16.6441489 L172.337836,16.6441489 L172.337836,31.1859299 Z M172.460716,10.2324676 C172.93128,9.76190292 173.504722,9.5266206 174.179134,9.5266206 C174.854499,9.5266206 175.426035,9.76190292 175.897552,10.2324676 C176.368117,10.7030322 176.603399,11.2755208 176.603399,11.9499332 C176.603399,12.6252983 176.368117,13.1977868 175.897552,13.6683515 C175.426035,14.1389161 174.854499,14.3741984 174.179134,14.3741984 C173.504722,14.3741984 172.93128,14.1389161 172.460716,13.6683515 C171.990151,13.1977868 171.755821,12.6252983 171.755821,11.9499332 C171.755821,11.2755208 171.990151,10.7030322 172.460716,10.2324676 L172.460716,10.2324676 Z" id="Fill-15" fill="#FEFEFE"></path>
                    <path d="M188.061744,28.2260402 C188.479917,28.0517217 188.833317,27.8526367 189.119085,27.6278325 C189.446766,27.382072 189.733486,27.1058296 189.979247,26.7991053 L189.979247,25.2959656 C189.71253,25.1530816 189.405806,25.031154 189.058121,24.9273249 C188.771401,24.8263536 188.429432,24.738718 188.031262,24.667276 C187.632139,24.5948815 187.175863,24.5596368 186.665291,24.5596368 C186.37857,24.5596368 186.077561,24.5948815 185.760359,24.667276 C185.443156,24.738718 185.151673,24.8511201 184.885908,25.0044823 C184.620144,25.1578444 184.400103,25.3674076 184.226737,25.6331719 C184.052418,25.8998887 183.965736,26.2266168 183.965736,26.6152612 C183.965736,27.0039057 184.046703,27.3163454 184.211496,27.5506752 C184.374384,27.7859575 184.58871,27.9755169 184.855427,28.1184009 C185.121191,28.2612849 185.407911,28.3593986 185.714636,28.4098843 C186.020407,28.4613225 186.317606,28.4860891 186.604327,28.4860891 C187.156812,28.4860891 187.642617,28.4003587 188.061744,28.2260402 M191.927232,17.7488328 C193.082687,18.7299696 193.659939,20.0502177 193.659939,21.7067196 L193.659939,31.1856441 L190.255489,31.1856441 L190.255489,29.3452982 C189.947812,29.754899 189.559168,30.1225872 189.088603,30.4502678 C188.699959,30.7369884 188.20939,30.9922744 187.615945,31.2170786 C187.022501,31.4418828 186.307128,31.5542848 185.468875,31.5542848 C184.79351,31.5542848 184.139101,31.4475981 183.505649,31.2323196 C182.871244,31.0179936 182.309234,30.7007911 181.817713,30.2807121 C181.328097,29.8625383 180.9385,29.3510136 180.652732,28.7470905 C180.366011,28.14412 180.223127,27.453514 180.223127,26.6762251 C180.223127,25.9818088 180.370774,25.3369257 180.66702,24.7434808 C180.964219,24.1509885 181.37382,23.6394638 181.89487,23.2098592 C182.41592,22.7802547 183.019843,22.4487638 183.704734,22.2134815 C184.390577,21.9772466 185.131669,21.8591292 185.928962,21.8591292 C186.604327,21.8591292 187.192056,21.91152 187.693103,22.0134439 C188.194149,22.1163204 188.618039,22.238248 188.965723,22.381132 C189.354367,22.5249686 189.692526,22.6983345 189.979247,22.9031349 L189.979247,22.0744077 C189.979247,21.6047956 189.87637,21.205673 189.67157,20.8779924 C189.467722,20.5512643 189.211483,20.2902628 188.905712,20.0959406 C188.598035,19.9016184 188.260829,19.7634972 187.892188,19.681577 C187.5245,19.5996568 187.175863,19.5586968 186.850087,19.5586968 C186.317606,19.5586968 185.79084,19.6148978 185.268838,19.7272999 C184.747787,19.839702 184.281985,19.9578194 183.87429,20.0806996 C183.382769,20.24454 182.92173,20.428384 182.493078,20.6322319 L181.296662,17.5954706 C181.828191,17.3497101 182.401632,17.124906 183.014128,16.9201056 C183.546609,16.7562652 184.159105,16.6086184 184.855427,16.47526 C185.549843,16.3428542 186.276646,16.276175 187.033931,16.276175 C189.140041,16.276175 190.771777,16.7667434 191.927232,17.7488328" id="Fill-17" fill="#FEFEFE"></path>
                    <mask id="mask-4" fill="white">
                        <use xlink:href="#path-3"></use>
                    </mask>
                    <g id="Clip-2"></g>
                    <path d="M8.37810622,-2.7066312e-05 L30.2901804,-2.7066312e-05 C34.9174371,-2.7066312e-05 38.6685573,3.75109311 38.6685573,8.37807915 L38.6685573,30.290424 C38.6685573,34.9174101 34.9174371,38.6685302 30.2901804,38.6685302 L8.37810622,38.6685302 C3.75084952,38.6685302 0,34.9174101 0,30.290424 L0,8.37807915 C0,3.75109311 3.75084952,-2.7066312e-05 8.37810622,-2.7066312e-05" id="Fill-1" fill="#FFFFFF" mask="url(#mask-4)"></path>
                    <mask id="mask-6" fill="white">
                        <use xlink:href="#path-5"></use>
                    </mask>
                    <g id="Clip-5"></g>
                    <path d="M21.7962304,13.5174575 C21.6108262,13.5174575 21.4321885,13.5640116 21.2584228,13.6563077 L21.2584228,13.6563077 C21.0849277,13.7491452 20.9514908,13.8763568 20.8594653,14.0379427 L20.8594653,14.0379427 L19.7838501,15.9117435 L16.3491351,15.9117435 L16.3491351,17.4729284 L20.0612798,17.4729284 C20.2464134,17.4729284 20.4261337,17.4269156 20.5996287,17.3343489 L20.5996287,17.3343489 C20.7725825,17.2420527 20.9054781,17.1145704 20.9983155,16.9524432 L20.9983155,16.9524432 L22.0736601,15.0789131 L28.4239582,15.0789131 C28.7934134,15.0789131 29.1054879,15.2061247 29.3601819,15.4605481 L29.3601819,15.4605481 C29.6146053,15.7152421 29.7420876,16.0275873 29.7420876,16.3973131 L29.7420876,16.3973131 L29.7420876,21.9145102 C29.7420876,22.2845067 29.6146053,22.5971226 29.3601819,22.8510046 L29.3601819,22.8510046 C29.1054879,23.1056986 28.7934134,23.2326396 28.4239582,23.2326396 L28.4239582,23.2326396 L22.1085756,23.2326396 L20.2004006,19.9365041 C20.1075632,19.7749182 19.9749383,19.6471652 19.8011725,19.5548691 L19.8011725,19.5548691 C19.6279481,19.462573 19.4482278,19.4157483 19.2636356,19.4157483 L19.2636356,19.4157483 L16.3491351,19.4157483 L16.3491351,20.9772038 L18.9856646,20.9772038 L20.8594653,24.238965 C20.9514908,24.4010923 21.0849277,24.5337172 21.2584228,24.6379225 L21.2584228,24.6379225 C21.4321885,24.7421278 21.6108262,24.7940951 21.7962304,24.7940951 L21.7962304,24.7940951 L28.7011172,24.7940951 C29.4411102,24.7940951 30.0595754,24.545897 30.5578662,24.0481475 L30.5578662,24.0481475 C31.0548037,23.5512101 31.3032725,22.9324742 31.3032725,22.1919399 L31.3032725,22.1919399 L31.3032725,16.1196128 C31.3032725,15.3796198 31.0548037,14.7611546 30.5578662,14.2634051 L30.5578662,14.2634051 C30.0595754,13.7661969 29.4411102,13.5174575 28.7011172,13.5174575 L28.7011172,13.5174575 L21.7962304,13.5174575 Z M25.6826821,17.2301436 C25.4279881,17.4848376 25.3010471,17.7852736 25.3010471,18.1322637 L25.3010471,18.1322637 C25.3010471,18.4792539 25.4336721,18.7861858 25.6997339,19.0517064 L25.6997339,19.0517064 C25.9657958,19.3177682 26.2721864,19.4506638 26.6191765,19.4506638 L26.6191765,19.4506638 C26.9664373,19.4506638 27.2666027,19.3239935 27.5212967,19.0692995 L27.5212967,19.0692995 C27.77572,18.8148761 27.9029317,18.5022602 27.9029317,18.1322637 L27.9029317,18.1322637 C27.9029317,17.7625379 27.7816746,17.4556059 27.5386191,17.2128211 L27.5386191,17.2128211 C27.296105,16.9700363 26.989173,16.8482379 26.6191765,16.8482379 L26.6191765,16.8482379 C26.2489094,16.8482379 25.9368348,16.9759909 25.6826821,17.2301436 L25.6826821,17.2301436 Z" id="Fill-4" fill="url(#linearGradient-7)" mask="url(#mask-6)"></path>
                    <polygon id="Fill-7" fill="#E6320F" points="14.6139409 17.5770795 14.6139409 15.8421289 6.84157875 15.8421289 7.67440917 17.5770795"></polygon>
                    <polygon id="Fill-9" fill="#E6320F" points="14.6139409 21.0467913 14.6139409 19.3118407 8.50723959 19.3118407 9.33979935 21.0467913"></polygon>
                </g>
            </g>
        </g>
    </g>
</svg>